<svg xmlns="http://www.w3.org/2000/svg" xmlns:xlink="http://www.w3.org/1999/xlink" width="500" zoomAndPan="magnify"
    viewBox="0 0 375 374.999991" height="500" preserveAspectRatio="xMidYMid meet" version="1.0">
    <defs>
        <g />
        <clipPath id="60daa3f701">
            <path d="M 6.355469 154 L 68 154 L 68 220.101562 L 6.355469 220.101562 Z M 6.355469 154 "
                clip-rule="nonzero" />
        </clipPath>
        <clipPath id="fcaae0fa58">
            <path
                d="M 34.480469 218.382812 L 38.265625 218.382812 L 38.265625 225.800781 L 34.480469 225.800781 Z M 34.480469 218.382812 "
                clip-rule="nonzero" />
        </clipPath>
        <clipPath id="d83eae7970">
            <path
                d="M 35.695312 225.523438 C 35.882812 225.664062 36.09375 225.753906 36.304688 225.753906 C 36.511719 225.753906 36.714844 225.675781 36.898438 225.539062 C 36.902344 225.535156 36.90625 225.535156 36.910156 225.53125 C 37.605469 224.980469 38.117188 223.53125 38.128906 221.886719 L 38.128906 218.382812 L 34.480469 218.382812 L 34.480469 221.886719 C 34.488281 223.539062 34.992188 224.988281 35.695312 225.523438 "
                clip-rule="nonzero" />
        </clipPath>
        <clipPath id="7cdf09f955">
            <path
                d="M 41.289062 218.382812 L 45 218.382812 L 45 225.800781 L 41.289062 225.800781 Z M 41.289062 218.382812 "
                clip-rule="nonzero" />
        </clipPath>
        <clipPath id="7dbb55e75d">
            <path
                d="M 42.503906 225.523438 C 42.691406 225.664062 42.90625 225.753906 43.113281 225.753906 C 43.320312 225.753906 43.523438 225.675781 43.707031 225.539062 C 43.710938 225.535156 43.714844 225.535156 43.71875 225.53125 C 44.414062 224.980469 44.925781 223.53125 44.9375 221.886719 L 44.9375 218.382812 L 41.289062 218.382812 L 41.289062 221.886719 C 41.296875 223.539062 41.800781 224.988281 42.503906 225.523438 "
                clip-rule="nonzero" />
        </clipPath>
        <clipPath id="cbba307df7">
            <path
                d="M 34.339844 149.1875 L 38.125 149.1875 L 38.125 156.605469 L 34.339844 156.605469 Z M 34.339844 149.1875 "
                clip-rule="nonzero" />
        </clipPath>
        <clipPath id="34f49741a2">
            <path
                d="M 36.90625 149.464844 C 36.71875 149.328125 36.507812 149.238281 36.300781 149.238281 C 36.089844 149.238281 35.890625 149.316406 35.703125 149.453125 C 35.699219 149.457031 35.695312 149.457031 35.691406 149.460938 C 34.996094 150.011719 34.484375 151.460938 34.476562 153.101562 L 34.476562 156.605469 L 38.125 156.605469 L 38.125 153.105469 C 38.113281 151.453125 37.609375 150.003906 36.90625 149.464844 "
                clip-rule="nonzero" />
        </clipPath>
        <clipPath id="fb70399081">
            <path
                d="M 41.148438 149.1875 L 44.933594 149.1875 L 44.933594 156.605469 L 41.148438 156.605469 Z M 41.148438 149.1875 "
                clip-rule="nonzero" />
        </clipPath>
        <clipPath id="3d9b3811b2">
            <path
                d="M 43.714844 149.464844 C 43.527344 149.328125 43.316406 149.238281 43.109375 149.238281 C 42.898438 149.238281 42.699219 149.316406 42.511719 149.453125 C 42.507812 149.457031 42.503906 149.457031 42.5 149.460938 C 41.808594 150.011719 41.292969 151.460938 41.285156 153.101562 L 41.285156 156.605469 L 44.933594 156.605469 L 44.933594 153.105469 C 44.921875 151.453125 44.417969 150.003906 43.714844 149.464844 "
                clip-rule="nonzero" />
        </clipPath>
    </defs>
    <g fill="#ffffff" fill-opacity="1">
        <g transform="translate(71.608104, 202.709026)">
            <g>
                <path
                    d="M 19.757812 -27.570312 C 16.28125 -27.570312 13.40625 -25.453125 12.347656 -18.398438 L 8.214844 -26.714844 L 2.269531 -26.714844 L 2.269531 0 L 14.71875 0 L 14.71875 -8.972656 C 14.71875 -13.15625 15.777344 -14.464844 19.253906 -14.464844 C 20.917969 -14.464844 22.328125 -14.363281 23.4375 -14.265625 L 23.4375 -27.066406 C 22.683594 -27.269531 21.421875 -27.570312 19.757812 -27.570312 Z M 19.757812 -27.570312 " />
            </g>
        </g>
    </g>
    <g fill="#ffffff" fill-opacity="1">
        <g transform="translate(95.801188, 202.709026)">
            <g>
                <path
                    d="M 15.777344 -11.441406 L 11.894531 -26.714844 L -0.90625 -26.714844 L 8.265625 -1.058594 C 7.609375 0.757812 6.753906 1.359375 4.6875 1.359375 C 3.78125 1.359375 2.46875 1.261719 1.359375 1.109375 L 1.359375 10.132812 C 2.773438 10.484375 5.242188 10.886719 8.113281 10.886719 C 16.734375 10.886719 20.816406 7.007812 23.992188 -2.921875 L 31.753906 -26.714844 L 19.558594 -26.714844 Z M 15.777344 -11.441406 " />
            </g>
        </g>
    </g>
    <g fill="#ffffff" fill-opacity="1">
        <g transform="translate(126.647375, 202.709026)">
            <g>
                <path
                    d="M 22.53125 -27.570312 C 17.238281 -27.570312 13.308594 -24.546875 11.996094 -18.546875 L 8.265625 -26.714844 L 2.269531 -26.714844 L 2.269531 10.082031 L 14.363281 10.082031 L 14.363281 -4.738281 C 16.078125 -1.007812 19.152344 0.855469 22.882812 0.855469 C 28.78125 0.855469 33.820312 -4.183594 33.820312 -12.703125 L 33.820312 -14.011719 C 33.820312 -22.53125 28.78125 -27.570312 22.53125 -27.570312 Z M 18.042969 -8.769531 C 15.828125 -8.769531 14.363281 -10.179688 14.363281 -13.355469 C 14.363281 -16.53125 15.828125 -17.945312 18.042969 -17.945312 C 20.3125 -17.945312 21.722656 -16.582031 21.722656 -13.355469 C 21.722656 -10.132812 20.3125 -8.769531 18.042969 -8.769531 Z M 18.042969 -8.769531 " />
            </g>
        </g>
    </g>
    <g fill="#ffffff" fill-opacity="1">
        <g transform="translate(161.424929, 202.709026)">
            <g>
                <path
                    d="M 27.21875 -26.714844 L 17.894531 -26.714844 L 17.894531 -34.628906 L 10.484375 -34.628906 L 6.453125 -26.714844 L 0.65625 -26.714844 L 0.65625 -17.085938 L 6.046875 -17.085938 L 6.046875 -11.140625 C 6.046875 -2.921875 9.777344 0.855469 19.253906 0.855469 C 22.78125 0.855469 25.808594 0.351562 27.269531 0 L 27.269531 -9.476562 C 26.007812 -9.222656 24.246094 -8.921875 22.078125 -8.921875 C 18.546875 -8.921875 17.894531 -9.578125 17.894531 -12.902344 L 17.894531 -17.085938 L 27.21875 -17.085938 Z M 27.21875 -26.714844 " />
            </g>
        </g>
    </g>
    <g fill="#ffffff" fill-opacity="1">
        <g transform="translate(190.255015, 202.709026)">
            <g>
                <path
                    d="M 16.785156 0.855469 C 27.015625 0.855469 32.5625 -4.6875 32.5625 -12.703125 L 32.5625 -14.011719 C 32.5625 -22.027344 27.015625 -27.570312 16.785156 -27.570312 C 6.503906 -27.570312 0.957031 -22.027344 0.957031 -14.011719 L 0.957031 -12.703125 C 0.957031 -4.6875 6.503906 0.855469 16.785156 0.855469 Z M 16.785156 -8.570312 C 14.464844 -8.570312 13.054688 -9.929688 13.054688 -13.40625 C 13.054688 -16.785156 14.464844 -18.144531 16.785156 -18.144531 C 19.054688 -18.144531 20.464844 -16.785156 20.464844 -13.40625 C 20.464844 -9.929688 19.054688 -8.570312 16.785156 -8.570312 Z M 16.785156 -8.570312 " />
            </g>
        </g>
    </g>
    <g fill="#ffffff" fill-opacity="1">
        <g transform="translate(223.772521, 202.709026)">
            <g>
                <path
                    d="M 16.785156 0.855469 C 27.015625 0.855469 32.5625 -4.6875 32.5625 -12.703125 L 32.5625 -14.011719 C 32.5625 -22.027344 27.015625 -27.570312 16.785156 -27.570312 C 6.503906 -27.570312 0.957031 -22.027344 0.957031 -14.011719 L 0.957031 -12.703125 C 0.957031 -4.6875 6.503906 0.855469 16.785156 0.855469 Z M 16.785156 -8.570312 C 14.464844 -8.570312 13.054688 -9.929688 13.054688 -13.40625 C 13.054688 -16.785156 14.464844 -18.144531 16.785156 -18.144531 C 19.054688 -18.144531 20.464844 -16.785156 20.464844 -13.40625 C 20.464844 -9.929688 19.054688 -8.570312 16.785156 -8.570312 Z M 16.785156 -8.570312 " />
            </g>
        </g>
    </g>
    <g fill="#ffffff" fill-opacity="1">
        <g transform="translate(257.290028, 202.709026)">
            <g>
                <path
                    d="M 32.007812 -36.796875 L 2.367188 -36.796875 L 2.367188 0 L 14.617188 0 L 14.617188 -12.148438 L 30.898438 -12.148438 L 30.898438 -22.226562 L 14.617188 -22.226562 L 14.617188 -26.664062 L 32.007812 -26.664062 Z M 32.007812 -36.796875 " />
            </g>
        </g>
    </g>
    <g fill="#ffffff" fill-opacity="1">
        <g transform="translate(290.404305, 202.709026)">
            <g>
                <path
                    d="M 19.707031 -13.910156 C 19.707031 -10.886719 18.398438 -9.578125 16.632812 -9.578125 C 14.769531 -9.578125 13.859375 -10.535156 13.859375 -13.40625 L 13.859375 -26.714844 L 1.816406 -26.714844 L 1.816406 -10.988281 C 1.816406 -3.378906 6 0.855469 12.148438 0.855469 C 17.035156 0.855469 20.765625 -1.863281 22.027344 -8.113281 L 25.808594 0 L 31.804688 0 L 31.804688 -26.714844 L 19.707031 -26.714844 Z M 19.707031 -13.910156 " />
            </g>
        </g>
    </g>
    <g fill="#ffffff" fill-opacity="1">
        <g transform="translate(324.52664, 202.709026)">
            <g>
                <path
                    d="M 22.027344 -27.570312 C 17.035156 -27.570312 13.355469 -24.847656 12.046875 -18.597656 L 8.316406 -26.714844 L 2.269531 -26.714844 L 2.269531 0 L 14.363281 0 L 14.363281 -12.800781 C 14.363281 -15.828125 15.675781 -17.136719 17.539062 -17.136719 C 19.304688 -17.136719 20.261719 -16.179688 20.261719 -13.308594 L 20.261719 0 L 32.359375 0 L 32.359375 -15.726562 C 32.359375 -23.335938 28.125 -27.570312 22.027344 -27.570312 Z M 22.027344 -27.570312 " />
            </g>
        </g>
    </g>
    <path fill="#ffffff"
        d="M 47.863281 178.746094 C 49.039062 179.910156 50.941406 179.898438 52.109375 178.726562 C 53.277344 177.554688 53.265625 175.664062 52.089844 174.503906 C 45.042969 167.554688 33.628906 167.605469 26.644531 174.617188 C 19.664062 181.628906 19.714844 192.984375 26.761719 199.929688 C 30.285156 203.40625 34.898438 205.128906 39.507812 205.109375 C 44.113281 205.085938 48.714844 203.320312 52.207031 199.816406 C 53.375 198.644531 53.363281 196.753906 52.1875 195.589844 C 51.007812 194.429688 49.109375 194.4375 47.941406 195.609375 C 43.289062 200.28125 35.683594 200.316406 30.988281 195.6875 C 26.296875 191.058594 26.261719 183.492188 30.914062 178.820312 C 35.5625 174.152344 43.167969 174.117188 47.863281 178.746094 Z M 47.863281 178.746094 "
        fill-opacity="1" fill-rule="nonzero" />
    <g clip-path="url(#60daa3f701)">
        <path fill="#ffffff"
            d="M 67.238281 199.765625 C 67.21875 195.773438 65.640625 192.03125 62.792969 189.222656 C 61.617188 188.0625 61.609375 186.167969 62.773438 184.996094 C 68.597656 179.148438 68.554688 169.671875 62.675781 163.875 C 49.738281 151.121094 28.78125 151.214844 15.960938 164.085938 C 9.75 170.324219 6.351562 178.589844 6.394531 187.367188 C 6.433594 196.144531 9.90625 204.382812 16.175781 210.5625 C 22.644531 216.9375 31.117188 220.101562 39.574219 220.0625 C 48.035156 220.027344 56.476562 216.785156 62.886719 210.347656 C 65.710938 207.515625 67.257812 203.753906 67.238281 199.765625 Z M 58.625 206.140625 C 48.136719 216.671875 30.988281 216.75 20.402344 206.316406 C 15.273438 201.261719 12.433594 194.523438 12.398438 187.339844 C 12.367188 180.160156 15.144531 173.394531 20.226562 168.292969 C 30.714844 157.761719 47.863281 157.683594 58.449219 168.117188 C 61.976562 171.597656 62.003906 177.28125 58.507812 180.792969 C 55.011719 184.300781 55.035156 189.988281 58.5625 193.464844 C 60.273438 195.152344 61.21875 197.398438 61.230469 199.792969 C 61.242188 202.1875 60.316406 204.441406 58.625 206.140625 "
            fill-opacity="1" fill-rule="nonzero" />
    </g>
    <path fill="#ffffff"
        d="M 38.988281 192.070312 C 38.667969 192.070312 38.351562 192.039062 38.035156 191.976562 C 37.722656 191.914062 37.417969 191.824219 37.121094 191.703125 C 36.824219 191.578125 36.542969 191.429688 36.277344 191.253906 C 36.011719 191.074219 35.765625 190.875 35.539062 190.648438 C 35.3125 190.421875 35.109375 190.179688 34.933594 189.914062 C 34.753906 189.648438 34.605469 189.367188 34.480469 189.074219 C 34.359375 188.78125 34.265625 188.476562 34.203125 188.164062 C 34.140625 187.851562 34.109375 187.535156 34.109375 187.21875 C 34.109375 186.898438 34.140625 186.582031 34.203125 186.269531 C 34.265625 185.957031 34.359375 185.652344 34.480469 185.359375 C 34.605469 185.066406 34.753906 184.785156 34.933594 184.519531 C 35.109375 184.253906 35.3125 184.011719 35.539062 183.785156 C 35.765625 183.558594 36.011719 183.359375 36.277344 183.179688 C 36.542969 183.003906 36.824219 182.855469 37.121094 182.730469 C 37.417969 182.609375 37.722656 182.519531 38.035156 182.457031 C 38.351562 182.394531 38.667969 182.363281 38.988281 182.363281 C 39.308594 182.363281 39.625 182.394531 39.941406 182.457031 C 40.253906 182.519531 40.558594 182.609375 40.855469 182.730469 C 41.152344 182.855469 41.433594 183.003906 41.699219 183.179688 C 41.964844 183.359375 42.210938 183.558594 42.4375 183.785156 C 42.664062 184.011719 42.867188 184.253906 43.046875 184.519531 C 43.222656 184.785156 43.375 185.066406 43.496094 185.359375 C 43.617188 185.652344 43.710938 185.957031 43.773438 186.269531 C 43.835938 186.582031 43.867188 186.898438 43.867188 187.21875 C 43.867188 187.535156 43.835938 187.851562 43.773438 188.164062 C 43.710938 188.476562 43.617188 188.78125 43.496094 189.074219 C 43.375 189.367188 43.222656 189.648438 43.046875 189.914062 C 42.867188 190.179688 42.664062 190.421875 42.4375 190.648438 C 42.210938 190.875 41.964844 191.074219 41.699219 191.253906 C 41.433594 191.429688 41.152344 191.578125 40.855469 191.703125 C 40.558594 191.824219 40.253906 191.914062 39.941406 191.976562 C 39.625 192.039062 39.308594 192.070312 38.988281 192.070312 Z M 38.988281 192.070312 "
        fill-opacity="1" fill-rule="nonzero" />
    <g clip-path="url(#fcaae0fa58)">
        <g clip-path="url(#d83eae7970)">
            <path fill="#ffffff"
                d="M 34.480469 218.382812 L 38.113281 218.382812 L 38.113281 225.800781 L 34.480469 225.800781 Z M 34.480469 218.382812 "
                fill-opacity="1" fill-rule="nonzero" />
        </g>
    </g>
    <g clip-path="url(#7cdf09f955)">
        <g clip-path="url(#7dbb55e75d)">
            <path fill="#ffffff"
                d="M 41.289062 218.382812 L 44.921875 218.382812 L 44.921875 225.800781 L 41.289062 225.800781 Z M 41.289062 218.382812 "
                fill-opacity="1" fill-rule="nonzero" />
        </g>
    </g>
    <g clip-path="url(#cbba307df7)">
        <g clip-path="url(#34f49741a2)">
            <path fill="#ffffff"
                d="M 38.125 156.605469 L 34.492188 156.605469 L 34.492188 149.1875 L 38.125 149.1875 Z M 38.125 156.605469 "
                fill-opacity="1" fill-rule="nonzero" />
        </g>
    </g>
    <g clip-path="url(#fb70399081)">
        <g clip-path="url(#3d9b3811b2)">
            <path fill="#ffffff"
                d="M 44.933594 156.605469 L 41.300781 156.605469 L 41.300781 149.1875 L 44.933594 149.1875 Z M 44.933594 156.605469 "
                fill-opacity="1" fill-rule="nonzero" />
        </g>
    </g>
</svg>