<svg width="351" height="60" viewBox="0 0 351 60" fill="none" xmlns="http://www.w3.org/2000/svg">
<g filter="url(#filter0_d_6_1516)">
<path d="M4 21.5469C4 33.224 11.5156 40.7448 24.0521 40.7448C36.1562 40.7448 43.0885 34.1302 43.7812 22.9323H29.9167C29.3802 27.3594 27.4635 29.1719 23.9948 29.1719C20.2083 29.1719 17.7552 26.7188 17.7552 21.2812V19.4688C17.7552 14.026 20.2083 11.5729 23.9948 11.5729C27.4635 11.5729 29.3802 13.3854 29.9167 17.8125H43.7812C43.0885 6.61458 36.1562 0 24.0521 0C11.5156 0 4 7.52083 4 19.1979V21.5469Z" fill="white"/>
</g>
<g filter="url(#filter1_d_6_1516)">
<path d="M65.6463 10.6667C61.964 10.6667 58.9276 12.9063 57.8078 20.3751L53.4328 11.573H47.1411V39.8386H60.313V30.3438C60.313 25.922 61.4328 24.5313 65.1099 24.5313C66.8703 24.5313 68.3651 24.6407 69.5369 24.7449V11.198C68.7401 10.9897 67.4067 10.6667 65.6463 10.6667Z" fill="white"/>
</g>
<g filter="url(#filter2_d_6_1516)">
<path d="M87.0304 27.7345L82.9211 11.573H69.3794L79.0825 38.7188C78.3898 40.6407 77.4836 41.2761 75.2961 41.2761C74.3377 41.2761 72.9523 41.172 71.7752 41.0105V50.5574C73.27 50.9324 75.8846 51.3595 78.9263 51.3595C88.0409 51.3595 92.3638 47.2501 95.7231 36.7449L103.937 11.573H91.0304L87.0304 27.7345Z" fill="white"/>
</g>
<g filter="url(#filter3_d_6_1516)">
<path d="M126.813 10.6667C121.214 10.6667 117.053 13.8647 115.667 20.2136L111.719 11.573H105.375V50.5053H118.172V34.8282C119.985 38.7709 123.24 40.7449 127.188 40.7449C133.428 40.7449 138.761 35.4115 138.761 26.4011V25.0105C138.761 16.0001 133.428 10.6667 126.813 10.6667ZM122.068 30.5574C119.719 30.5574 118.172 29.0678 118.172 25.7084C118.172 22.3438 119.719 20.8542 122.068 20.8542C124.464 20.8542 125.959 22.2917 125.959 25.7084C125.959 29.1199 124.464 30.5574 122.068 30.5574Z" fill="white"/>
</g>
<g filter="url(#filter4_d_6_1516)">
<path d="M168.568 11.5729H158.703V3.20312H150.864L146.599 11.5729H140.463V21.7604H146.172V28.0521C146.172 36.7448 150.114 40.7448 160.14 40.7448C163.875 40.7448 167.078 40.2135 168.62 39.8385V29.8125C167.292 30.0781 165.422 30.401 163.13 30.401C159.396 30.401 158.703 29.7083 158.703 26.1875V21.7604H168.568V11.5729Z" fill="white"/>
</g>
<g filter="url(#filter5_d_6_1516)">
<path d="M188.035 40.7449C198.858 40.7449 204.728 34.8803 204.728 26.4011V25.0105C204.728 16.5313 198.858 10.6667 188.035 10.6667C177.155 10.6667 171.29 16.5313 171.29 25.0105V26.4011C171.29 34.8803 177.155 40.7449 188.035 40.7449ZM188.035 30.7709C185.582 30.7709 184.087 29.3334 184.087 25.6511C184.087 22.0782 185.582 20.6407 188.035 20.6407C190.431 20.6407 191.925 22.0782 191.925 25.6511C191.925 29.3334 190.431 30.7709 188.035 30.7709Z" fill="white"/>
</g>
<g filter="url(#filter6_d_6_1516)">
<path d="M223.498 40.7449C234.321 40.7449 240.191 34.8803 240.191 26.4011V25.0105C240.191 16.5313 234.321 10.6667 223.498 10.6667C212.618 10.6667 206.753 16.5313 206.753 25.0105V26.4011C206.753 34.8803 212.618 40.7449 223.498 40.7449ZM223.498 30.7709C221.045 30.7709 219.55 29.3334 219.55 25.6511C219.55 22.0782 221.045 20.6407 223.498 20.6407C225.894 20.6407 227.389 22.0782 227.389 25.6511C227.389 29.3334 225.894 30.7709 223.498 30.7709Z" fill="white"/>
</g>
<g filter="url(#filter7_d_6_1516)">
<path d="M275.065 0.90625H243.706V39.8385H256.664V26.9844H273.894V16.3177H256.664V11.625H275.065V0.90625Z" fill="white"/>
</g>
<g filter="url(#filter8_d_6_1516)">
<path d="M297.091 25.1199C297.091 28.3178 295.701 29.7084 293.836 29.7084C291.862 29.7084 290.904 28.6928 290.904 25.6511V11.573H278.159V28.2136C278.159 36.2657 282.581 40.7449 289.091 40.7449C294.263 40.7449 298.211 37.8647 299.545 31.2501L303.545 39.8386H309.888V11.573H297.091V25.1199Z" fill="white"/>
</g>
<g filter="url(#filter9_d_6_1516)">
<path d="M335.647 10.6667C330.366 10.6667 326.47 13.547 325.085 20.1615L321.137 11.573H314.741V39.8386H327.538V26.2917C327.538 23.0938 328.924 21.7084 330.897 21.7084C332.767 21.7084 333.778 22.7188 333.778 25.7605V39.8386H346.58V23.198C346.58 15.1459 342.101 10.6667 335.647 10.6667Z" fill="white"/>
</g>
<defs>
<filter id="filter0_d_6_1516" x="0" y="0" width="47.7812" height="48.7448" filterUnits="userSpaceOnUse" color-interpolation-filters="sRGB">
<feFlood flood-opacity="0" result="BackgroundImageFix"/>
<feColorMatrix in="SourceAlpha" type="matrix" values="0 0 0 0 0 0 0 0 0 0 0 0 0 0 0 0 0 0 127 0" result="hardAlpha"/>
<feOffset dy="4"/>
<feGaussianBlur stdDeviation="2"/>
<feComposite in2="hardAlpha" operator="out"/>
<feColorMatrix type="matrix" values="0 0 0 0 0.203922 0 0 0 0 0.878431 0 0 0 0 0.807843 0 0 0 1 0"/>
<feBlend mode="normal" in2="BackgroundImageFix" result="effect1_dropShadow_6_1516"/>
<feBlend mode="normal" in="SourceGraphic" in2="effect1_dropShadow_6_1516" result="shape"/>
</filter>
<filter id="filter1_d_6_1516" x="43.1411" y="10.6667" width="30.3959" height="37.1719" filterUnits="userSpaceOnUse" color-interpolation-filters="sRGB">
<feFlood flood-opacity="0" result="BackgroundImageFix"/>
<feColorMatrix in="SourceAlpha" type="matrix" values="0 0 0 0 0 0 0 0 0 0 0 0 0 0 0 0 0 0 127 0" result="hardAlpha"/>
<feOffset dy="4"/>
<feGaussianBlur stdDeviation="2"/>
<feComposite in2="hardAlpha" operator="out"/>
<feColorMatrix type="matrix" values="0 0 0 0 0.203922 0 0 0 0 0.878431 0 0 0 0 0.807843 0 0 0 1 0"/>
<feBlend mode="normal" in2="BackgroundImageFix" result="effect1_dropShadow_6_1516"/>
<feBlend mode="normal" in="SourceGraphic" in2="effect1_dropShadow_6_1516" result="shape"/>
</filter>
<filter id="filter2_d_6_1516" x="65.3794" y="11.573" width="42.5573" height="47.7864" filterUnits="userSpaceOnUse" color-interpolation-filters="sRGB">
<feFlood flood-opacity="0" result="BackgroundImageFix"/>
<feColorMatrix in="SourceAlpha" type="matrix" values="0 0 0 0 0 0 0 0 0 0 0 0 0 0 0 0 0 0 127 0" result="hardAlpha"/>
<feOffset dy="4"/>
<feGaussianBlur stdDeviation="2"/>
<feComposite in2="hardAlpha" operator="out"/>
<feColorMatrix type="matrix" values="0 0 0 0 0.203922 0 0 0 0 0.878431 0 0 0 0 0.807843 0 0 0 1 0"/>
<feBlend mode="normal" in2="BackgroundImageFix" result="effect1_dropShadow_6_1516"/>
<feBlend mode="normal" in="SourceGraphic" in2="effect1_dropShadow_6_1516" result="shape"/>
</filter>
<filter id="filter3_d_6_1516" x="101.375" y="10.6667" width="41.3854" height="47.8386" filterUnits="userSpaceOnUse" color-interpolation-filters="sRGB">
<feFlood flood-opacity="0" result="BackgroundImageFix"/>
<feColorMatrix in="SourceAlpha" type="matrix" values="0 0 0 0 0 0 0 0 0 0 0 0 0 0 0 0 0 0 127 0" result="hardAlpha"/>
<feOffset dy="4"/>
<feGaussianBlur stdDeviation="2"/>
<feComposite in2="hardAlpha" operator="out"/>
<feColorMatrix type="matrix" values="0 0 0 0 0.203922 0 0 0 0 0.878431 0 0 0 0 0.807843 0 0 0 1 0"/>
<feBlend mode="normal" in2="BackgroundImageFix" result="effect1_dropShadow_6_1516"/>
<feBlend mode="normal" in="SourceGraphic" in2="effect1_dropShadow_6_1516" result="shape"/>
</filter>
<filter id="filter4_d_6_1516" x="136.463" y="3.20312" width="36.1562" height="45.5417" filterUnits="userSpaceOnUse" color-interpolation-filters="sRGB">
<feFlood flood-opacity="0" result="BackgroundImageFix"/>
<feColorMatrix in="SourceAlpha" type="matrix" values="0 0 0 0 0 0 0 0 0 0 0 0 0 0 0 0 0 0 127 0" result="hardAlpha"/>
<feOffset dy="4"/>
<feGaussianBlur stdDeviation="2"/>
<feComposite in2="hardAlpha" operator="out"/>
<feColorMatrix type="matrix" values="0 0 0 0 0.203922 0 0 0 0 0.878431 0 0 0 0 0.807843 0 0 0 1 0"/>
<feBlend mode="normal" in2="BackgroundImageFix" result="effect1_dropShadow_6_1516"/>
<feBlend mode="normal" in="SourceGraphic" in2="effect1_dropShadow_6_1516" result="shape"/>
</filter>
<filter id="filter5_d_6_1516" x="167.29" y="10.6667" width="41.4375" height="38.0781" filterUnits="userSpaceOnUse" color-interpolation-filters="sRGB">
<feFlood flood-opacity="0" result="BackgroundImageFix"/>
<feColorMatrix in="SourceAlpha" type="matrix" values="0 0 0 0 0 0 0 0 0 0 0 0 0 0 0 0 0 0 127 0" result="hardAlpha"/>
<feOffset dy="4"/>
<feGaussianBlur stdDeviation="2"/>
<feComposite in2="hardAlpha" operator="out"/>
<feColorMatrix type="matrix" values="0 0 0 0 0.203922 0 0 0 0 0.878431 0 0 0 0 0.807843 0 0 0 1 0"/>
<feBlend mode="normal" in2="BackgroundImageFix" result="effect1_dropShadow_6_1516"/>
<feBlend mode="normal" in="SourceGraphic" in2="effect1_dropShadow_6_1516" result="shape"/>
</filter>
<filter id="filter6_d_6_1516" x="202.753" y="10.6667" width="41.4375" height="38.0781" filterUnits="userSpaceOnUse" color-interpolation-filters="sRGB">
<feFlood flood-opacity="0" result="BackgroundImageFix"/>
<feColorMatrix in="SourceAlpha" type="matrix" values="0 0 0 0 0 0 0 0 0 0 0 0 0 0 0 0 0 0 127 0" result="hardAlpha"/>
<feOffset dy="4"/>
<feGaussianBlur stdDeviation="2"/>
<feComposite in2="hardAlpha" operator="out"/>
<feColorMatrix type="matrix" values="0 0 0 0 0.203922 0 0 0 0 0.878431 0 0 0 0 0.807843 0 0 0 1 0"/>
<feBlend mode="normal" in2="BackgroundImageFix" result="effect1_dropShadow_6_1516"/>
<feBlend mode="normal" in="SourceGraphic" in2="effect1_dropShadow_6_1516" result="shape"/>
</filter>
<filter id="filter7_d_6_1516" x="239.706" y="0.90625" width="39.3594" height="46.9323" filterUnits="userSpaceOnUse" color-interpolation-filters="sRGB">
<feFlood flood-opacity="0" result="BackgroundImageFix"/>
<feColorMatrix in="SourceAlpha" type="matrix" values="0 0 0 0 0 0 0 0 0 0 0 0 0 0 0 0 0 0 127 0" result="hardAlpha"/>
<feOffset dy="4"/>
<feGaussianBlur stdDeviation="2"/>
<feComposite in2="hardAlpha" operator="out"/>
<feColorMatrix type="matrix" values="0 0 0 0 0.203922 0 0 0 0 0.878431 0 0 0 0 0.807843 0 0 0 1 0"/>
<feBlend mode="normal" in2="BackgroundImageFix" result="effect1_dropShadow_6_1516"/>
<feBlend mode="normal" in="SourceGraphic" in2="effect1_dropShadow_6_1516" result="shape"/>
</filter>
<filter id="filter8_d_6_1516" x="274.159" y="11.573" width="39.7291" height="37.1719" filterUnits="userSpaceOnUse" color-interpolation-filters="sRGB">
<feFlood flood-opacity="0" result="BackgroundImageFix"/>
<feColorMatrix in="SourceAlpha" type="matrix" values="0 0 0 0 0 0 0 0 0 0 0 0 0 0 0 0 0 0 127 0" result="hardAlpha"/>
<feOffset dy="4"/>
<feGaussianBlur stdDeviation="2"/>
<feComposite in2="hardAlpha" operator="out"/>
<feColorMatrix type="matrix" values="0 0 0 0 0.203922 0 0 0 0 0.878431 0 0 0 0 0.807843 0 0 0 1 0"/>
<feBlend mode="normal" in2="BackgroundImageFix" result="effect1_dropShadow_6_1516"/>
<feBlend mode="normal" in="SourceGraphic" in2="effect1_dropShadow_6_1516" result="shape"/>
</filter>
<filter id="filter9_d_6_1516" x="310.741" y="10.6667" width="39.8386" height="37.1719" filterUnits="userSpaceOnUse" color-interpolation-filters="sRGB">
<feFlood flood-opacity="0" result="BackgroundImageFix"/>
<feColorMatrix in="SourceAlpha" type="matrix" values="0 0 0 0 0 0 0 0 0 0 0 0 0 0 0 0 0 0 127 0" result="hardAlpha"/>
<feOffset dy="4"/>
<feGaussianBlur stdDeviation="2"/>
<feComposite in2="hardAlpha" operator="out"/>
<feColorMatrix type="matrix" values="0 0 0 0 0.203922 0 0 0 0 0.878431 0 0 0 0 0.807843 0 0 0 1 0"/>
<feBlend mode="normal" in2="BackgroundImageFix" result="effect1_dropShadow_6_1516"/>
<feBlend mode="normal" in="SourceGraphic" in2="effect1_dropShadow_6_1516" result="shape"/>
</filter>
</defs>
</svg>
