<svg width="460" height="118" viewBox="0 0 460 118" fill="none" xmlns="http://www.w3.org/2000/svg">
<g filter="url(#filter0_d_6_1515)">
<path d="M133.12 0V34.0625H144.412V23.8906H150.432C160.089 23.8906 164.245 19.7396 164.245 11.901C164.245 4.10938 160.089 0 150.432 0H133.12ZM144.412 14.6042V9.47396H149.87C151.833 9.47396 152.719 10.3594 152.719 12.0365C152.719 13.7656 151.833 14.6042 149.87 14.6042H144.412Z" fill="white"/>
</g>
<g filter="url(#filter1_d_6_1515)">
<path d="M180.289 34.8541C189.763 34.8541 194.893 29.7239 194.893 22.302V21.0885C194.893 13.6718 189.763 8.54163 180.289 8.54163C170.774 8.54163 165.638 13.6718 165.638 21.0885V22.302C165.638 29.7239 170.774 34.8541 180.289 34.8541ZM180.289 26.1302C178.143 26.1302 176.836 24.8698 176.836 21.651C176.836 18.526 178.143 17.2656 180.289 17.2656C182.388 17.2656 183.695 18.526 183.695 21.651C183.695 24.8698 182.388 26.1302 180.289 26.1302Z" fill="white"/>
</g>
<g filter="url(#filter2_d_6_1515)">
<path d="M216.638 8.54163C211.737 8.54163 208.097 11.3385 206.883 16.8906L203.43 9.33329H197.878V43.3958H209.076V29.677C210.665 33.1302 213.508 34.8541 216.961 34.8541C222.42 34.8541 227.086 30.1875 227.086 22.302V21.0885C227.086 13.2031 222.42 8.54163 216.638 8.54163ZM212.482 25.9427C210.43 25.9427 209.076 24.6354 209.076 21.6979C209.076 18.7604 210.43 17.4531 212.482 17.4531C214.581 17.4531 215.888 18.7135 215.888 21.6979C215.888 24.6823 214.581 25.9427 212.482 25.9427Z" fill="white"/>
</g>
<g filter="url(#filter3_d_6_1515)">
<path d="M246.217 21.1823C246.217 23.9844 245.003 25.198 243.368 25.198C241.644 25.198 240.805 24.3125 240.805 21.6511V9.33337H229.654V23.8907C229.654 30.9375 233.524 34.8542 239.217 34.8542C243.743 34.8542 247.196 32.3386 248.363 26.5521L251.863 34.0625H257.415V9.33337H246.217V21.1823Z" fill="white"/>
</g>
<g filter="url(#filter4_d_6_1515)">
<path d="M273.136 0H261.704V34.0625H273.136V0Z" fill="white"/>
</g>
<g filter="url(#filter5_d_6_1515)">
<path d="M290.677 8.54163C281.302 8.54163 277.24 12.8802 276.682 18.151H287.88C288.115 17.125 288.812 16.3802 290.583 16.3802C292.312 16.3802 293.104 17.0312 293.292 18.6198L289.885 19.1302C280.135 20.5781 276.26 23.1458 276.26 28.3698C276.26 32.1041 279.062 34.8541 284.661 34.8541C290.354 34.8541 294.036 32.2916 295.344 27.4843L298.844 34.0625H304.396V20.8593C304.396 12.7864 300.198 8.54163 290.677 8.54163ZM289.141 27.1093C288.021 27.1093 287.458 26.552 287.458 25.8489C287.458 24.6354 288.953 23.8906 292.078 23.2864L293.479 23.0052C293.479 25.2916 291.615 27.1093 289.141 27.1093Z" fill="white"/>
</g>
<g filter="url(#filter6_d_6_1515)">
<path d="M324.319 8.54163C321.1 8.54163 318.439 10.5 317.46 17.0312L313.632 9.33329H308.126V34.0625H319.653V25.7552C319.653 21.8854 320.632 20.6718 323.85 20.6718C325.392 20.6718 326.699 20.7656 327.725 20.8593V9.00517C327.022 8.81767 325.856 8.54163 324.319 8.54163Z" fill="white"/>
</g>
<g filter="url(#filter7_d_6_1515)">
<path d="M4 83.0573C4 93.2761 10.5781 99.8542 21.5469 99.8542C32.1354 99.8542 38.2031 94.0677 38.8073 84.2709H26.6771C26.2135 88.1459 24.5313 89.7292 21.5 89.7292C18.1875 89.7292 16.0417 87.5834 16.0417 82.823V81.2396C16.0417 76.4792 18.1875 74.3334 21.5 74.3334C24.5313 74.3334 26.2135 75.9167 26.6771 79.7917H38.8073C38.2031 69.9948 32.1354 64.2084 21.5469 64.2084C10.5781 64.2084 4 70.7865 4 81.0052V83.0573Z" fill="white"/>
</g>
<g filter="url(#filter8_d_6_1515)">
<path d="M57.9381 73.5416C54.7193 73.5416 52.0579 75.5 51.0787 82.0312L47.2506 74.3333H41.7454V99.0625H53.2714V90.7552C53.2714 86.8854 54.2506 85.6718 57.4693 85.6718C59.011 85.6718 60.3183 85.7656 61.3443 85.8593V74.0052C60.6412 73.8177 59.4745 73.5416 57.9381 73.5416Z" fill="white"/>
</g>
<g filter="url(#filter9_d_6_1515)">
<path d="M76.6455 88.4688L73.0517 74.3334H61.2028L69.6923 98.0834C69.0882 99.7605 68.2913 100.323 66.3798 100.323C65.5413 100.323 64.3278 100.229 63.3017 100.089V108.443C64.609 108.766 66.8955 109.141 69.5517 109.141C77.5309 109.141 81.3121 105.547 84.2496 96.3542L91.4371 74.3334H80.1455L76.6455 88.4688Z" fill="white"/>
</g>
<g filter="url(#filter10_d_6_1515)">
<path d="M111.454 73.5416C106.553 73.5416 102.913 76.3385 101.699 81.8906L98.2459 74.3333H92.6938V108.396H103.892V94.677C105.48 98.1302 108.324 99.8541 111.777 99.8541C117.236 99.8541 121.902 95.1875 121.902 87.302V86.0885C121.902 78.2031 117.236 73.5416 111.454 73.5416ZM107.298 90.9427C105.246 90.9427 103.892 89.6354 103.892 86.6979C103.892 83.7604 105.246 82.4531 107.298 82.4531C109.397 82.4531 110.704 83.7135 110.704 86.6979C110.704 89.6823 109.397 90.9427 107.298 90.9427Z" fill="white"/>
</g>
<g filter="url(#filter11_d_6_1515)">
<path d="M147.985 74.3334H139.35V67.0052H132.491L128.762 74.3334H123.392V83.2448H128.387V88.75C128.387 96.3542 131.84 99.8542 140.61 99.8542C143.876 99.8542 146.678 99.3907 148.032 99.0625V90.2917C146.866 90.5261 145.23 90.8021 143.225 90.8021C139.959 90.8021 139.35 90.198 139.35 87.1198V83.2448H147.985V74.3334Z" fill="white"/>
</g>
<g filter="url(#filter12_d_6_1515)">
<path d="M165.011 99.8541C174.485 99.8541 179.616 94.7239 179.616 87.302V86.0885C179.616 78.6718 174.485 73.5416 165.011 73.5416C155.496 73.5416 150.36 78.6718 150.36 86.0885V87.302C150.36 94.7239 155.496 99.8541 165.011 99.8541ZM165.011 91.1302C162.866 91.1302 161.558 89.8698 161.558 86.651C161.558 83.526 162.866 82.2656 165.011 82.2656C167.11 82.2656 168.418 83.526 168.418 86.651C168.418 89.8698 167.11 91.1302 165.011 91.1302Z" fill="white"/>
</g>
<g filter="url(#filter13_d_6_1515)">
<path d="M181.387 87.302C181.387 94.7239 186.522 99.8541 196.085 99.8541C205.043 99.8541 209.803 95.375 210.319 88.4687H199.027C198.699 90.2916 197.72 91.1302 195.944 91.1302C193.892 91.1302 192.585 89.8229 192.585 86.6979C192.585 83.5729 193.892 82.2656 195.944 82.2656C197.72 82.2656 198.699 83.1041 198.98 84.927H210.272C209.756 78.0208 204.996 73.5416 196.085 73.5416C186.522 73.5416 181.387 78.6718 181.387 86.0885V87.302Z" fill="white"/>
</g>
<g filter="url(#filter14_d_6_1515)">
<path d="M229.352 86.1823C229.352 88.9844 228.139 90.198 226.503 90.198C224.78 90.198 223.941 89.3125 223.941 86.6511V74.3334H212.79V88.8907C212.79 95.9375 216.66 99.8542 222.352 99.8542C226.878 99.8542 230.332 97.3386 231.498 91.5521L234.998 99.0625H240.55V74.3334H229.352V86.1823Z" fill="white"/>
</g>
<g filter="url(#filter15_d_6_1515)">
<path d="M260.986 73.5416C257.767 73.5416 255.105 75.5 254.126 82.0312L250.298 74.3333H244.793V99.0625H256.319V90.7552C256.319 86.8854 257.298 85.6718 260.517 85.6718C262.058 85.6718 263.366 85.7656 264.392 85.8593V74.0052C263.689 73.8177 262.522 73.5416 260.986 73.5416Z" fill="white"/>
</g>
<g filter="url(#filter16_d_6_1515)">
<path d="M283.38 73.5416C280.162 73.5416 277.5 75.5 276.521 82.0312L272.693 74.3333H267.188V99.0625H278.714V90.7552C278.714 86.8854 279.693 85.6718 282.912 85.6718C284.453 85.6718 285.761 85.7656 286.787 85.8593V74.0052C286.084 73.8177 284.917 73.5416 283.38 73.5416Z" fill="white"/>
</g>
<g filter="url(#filter17_d_6_1515)">
<path d="M317.348 85.1093C317.348 78.5312 312.354 73.5416 303.067 73.5416C293.505 73.5416 288.369 78.6718 288.369 86.0885V87.302C288.369 94.7239 293.505 99.8541 302.926 99.8541C312.213 99.8541 316.458 95.5156 317.02 90.2448H305.588C305.166 91.2708 304.374 91.9218 302.557 91.9218C300.734 91.9218 299.52 91.0364 299.197 88.375H317.161C317.301 87.3489 317.348 86.3698 317.348 85.1093ZM302.833 81.0989C304.749 81.0989 305.869 81.8906 306.145 84.0833H299.291C299.755 81.8437 300.921 81.0989 302.833 81.0989Z" fill="white"/>
</g>
<g filter="url(#filter18_d_6_1515)">
<path d="M338.621 73.5416C334.001 73.5416 330.595 76.0573 329.381 81.8437L325.928 74.3333H320.329V99.0625H331.527V87.2083C331.527 84.4114 332.741 83.1979 334.47 83.1979C336.1 83.1979 336.985 84.0833 336.985 86.7448V99.0625H348.183V84.5052C348.183 77.4583 344.267 73.5416 338.621 73.5416Z" fill="white"/>
</g>
<g filter="url(#filter19_d_6_1515)">
<path d="M350.702 87.302C350.702 94.7239 355.837 99.8541 365.4 99.8541C374.358 99.8541 379.118 95.375 379.634 88.4687H368.342C368.014 90.2916 367.035 91.1302 365.259 91.1302C363.207 91.1302 361.9 89.8229 361.9 86.6979C361.9 83.5729 363.207 82.2656 365.259 82.2656C367.035 82.2656 368.014 83.1041 368.295 84.927H379.587C379.071 78.0208 374.311 73.5416 365.4 73.5416C355.837 73.5416 350.702 78.6718 350.702 86.0885V87.302Z" fill="white"/>
</g>
<g filter="url(#filter20_d_6_1515)">
<path d="M394.048 66.9583C394.048 69.9948 392.043 72 388.121 72C384.251 72 382.194 69.9948 382.194 66.9583C382.194 63.9271 384.251 61.875 388.121 61.875C392.043 61.875 394.048 63.9271 394.048 66.9583ZM393.72 99.0625V74.3333H382.522V99.0625H393.72Z" fill="white"/>
</g>
<g filter="url(#filter21_d_6_1515)">
<path d="M425.684 85.1093C425.684 78.5312 420.689 73.5416 411.403 73.5416C401.84 73.5416 396.705 78.6718 396.705 86.0885V87.302C396.705 94.7239 401.84 99.8541 411.262 99.8541C420.548 99.8541 424.793 95.5156 425.356 90.2448H413.923C413.501 91.2708 412.71 91.9218 410.892 91.9218C409.069 91.9218 407.856 91.0364 407.533 88.375H425.496C425.637 87.3489 425.684 86.3698 425.684 85.1093ZM411.168 81.0989C413.085 81.0989 414.205 81.8906 414.481 84.0833H407.626C408.09 81.8437 409.257 81.0989 411.168 81.0989Z" fill="white"/>
</g>
<g filter="url(#filter22_d_6_1515)">
<path d="M427.035 90.6145C427.545 95.9843 431.326 99.8541 441.545 99.8541C451.623 99.8541 455.587 95.8906 455.587 91.875C455.587 87.677 452.837 84.7395 443.457 83.9895C438.743 83.4791 438.092 82.8698 438.092 82.125C438.092 81.5208 438.743 80.8177 440.936 80.8177C443.222 80.8177 443.972 81.5625 444.154 82.6823H455.076C454.561 77.552 450.691 73.5416 440.842 73.5416C431.139 73.5416 427.358 77.3177 427.358 81.4739C427.358 85.7656 430.066 88.5625 439.493 89.3593C444.066 89.8229 444.717 90.526 444.717 91.2239C444.717 91.8281 444.019 92.5312 441.592 92.5312C439.165 92.5312 438.326 91.7343 438.092 90.6145H427.035Z" fill="white"/>
</g>
<defs>
<filter id="filter0_d_6_1515" x="129.12" y="0" width="39.125" height="42.0625" filterUnits="userSpaceOnUse" color-interpolation-filters="sRGB">
<feFlood flood-opacity="0" result="BackgroundImageFix"/>
<feColorMatrix in="SourceAlpha" type="matrix" values="0 0 0 0 0 0 0 0 0 0 0 0 0 0 0 0 0 0 127 0" result="hardAlpha"/>
<feOffset dy="4"/>
<feGaussianBlur stdDeviation="2"/>
<feComposite in2="hardAlpha" operator="out"/>
<feColorMatrix type="matrix" values="0 0 0 0 0.203922 0 0 0 0 0.878431 0 0 0 0 0.807843 0 0 0 1 0"/>
<feBlend mode="normal" in2="BackgroundImageFix" result="effect1_dropShadow_6_1515"/>
<feBlend mode="normal" in="SourceGraphic" in2="effect1_dropShadow_6_1515" result="shape"/>
</filter>
<filter id="filter1_d_6_1515" x="161.638" y="8.54163" width="37.2552" height="34.3125" filterUnits="userSpaceOnUse" color-interpolation-filters="sRGB">
<feFlood flood-opacity="0" result="BackgroundImageFix"/>
<feColorMatrix in="SourceAlpha" type="matrix" values="0 0 0 0 0 0 0 0 0 0 0 0 0 0 0 0 0 0 127 0" result="hardAlpha"/>
<feOffset dy="4"/>
<feGaussianBlur stdDeviation="2"/>
<feComposite in2="hardAlpha" operator="out"/>
<feColorMatrix type="matrix" values="0 0 0 0 0.203922 0 0 0 0 0.878431 0 0 0 0 0.807843 0 0 0 1 0"/>
<feBlend mode="normal" in2="BackgroundImageFix" result="effect1_dropShadow_6_1515"/>
<feBlend mode="normal" in="SourceGraphic" in2="effect1_dropShadow_6_1515" result="shape"/>
</filter>
<filter id="filter2_d_6_1515" x="193.878" y="8.54163" width="37.2084" height="42.8541" filterUnits="userSpaceOnUse" color-interpolation-filters="sRGB">
<feFlood flood-opacity="0" result="BackgroundImageFix"/>
<feColorMatrix in="SourceAlpha" type="matrix" values="0 0 0 0 0 0 0 0 0 0 0 0 0 0 0 0 0 0 127 0" result="hardAlpha"/>
<feOffset dy="4"/>
<feGaussianBlur stdDeviation="2"/>
<feComposite in2="hardAlpha" operator="out"/>
<feColorMatrix type="matrix" values="0 0 0 0 0.203922 0 0 0 0 0.878431 0 0 0 0 0.807843 0 0 0 1 0"/>
<feBlend mode="normal" in2="BackgroundImageFix" result="effect1_dropShadow_6_1515"/>
<feBlend mode="normal" in="SourceGraphic" in2="effect1_dropShadow_6_1515" result="shape"/>
</filter>
<filter id="filter3_d_6_1515" x="225.654" y="9.33337" width="35.7604" height="33.5209" filterUnits="userSpaceOnUse" color-interpolation-filters="sRGB">
<feFlood flood-opacity="0" result="BackgroundImageFix"/>
<feColorMatrix in="SourceAlpha" type="matrix" values="0 0 0 0 0 0 0 0 0 0 0 0 0 0 0 0 0 0 127 0" result="hardAlpha"/>
<feOffset dy="4"/>
<feGaussianBlur stdDeviation="2"/>
<feComposite in2="hardAlpha" operator="out"/>
<feColorMatrix type="matrix" values="0 0 0 0 0.203922 0 0 0 0 0.878431 0 0 0 0 0.807843 0 0 0 1 0"/>
<feBlend mode="normal" in2="BackgroundImageFix" result="effect1_dropShadow_6_1515"/>
<feBlend mode="normal" in="SourceGraphic" in2="effect1_dropShadow_6_1515" result="shape"/>
</filter>
<filter id="filter4_d_6_1515" x="257.704" y="0" width="19.4323" height="42.0625" filterUnits="userSpaceOnUse" color-interpolation-filters="sRGB">
<feFlood flood-opacity="0" result="BackgroundImageFix"/>
<feColorMatrix in="SourceAlpha" type="matrix" values="0 0 0 0 0 0 0 0 0 0 0 0 0 0 0 0 0 0 127 0" result="hardAlpha"/>
<feOffset dy="4"/>
<feGaussianBlur stdDeviation="2"/>
<feComposite in2="hardAlpha" operator="out"/>
<feColorMatrix type="matrix" values="0 0 0 0 0.203922 0 0 0 0 0.878431 0 0 0 0 0.807843 0 0 0 1 0"/>
<feBlend mode="normal" in2="BackgroundImageFix" result="effect1_dropShadow_6_1515"/>
<feBlend mode="normal" in="SourceGraphic" in2="effect1_dropShadow_6_1515" result="shape"/>
</filter>
<filter id="filter5_d_6_1515" x="272.26" y="8.54163" width="36.1354" height="34.3125" filterUnits="userSpaceOnUse" color-interpolation-filters="sRGB">
<feFlood flood-opacity="0" result="BackgroundImageFix"/>
<feColorMatrix in="SourceAlpha" type="matrix" values="0 0 0 0 0 0 0 0 0 0 0 0 0 0 0 0 0 0 127 0" result="hardAlpha"/>
<feOffset dy="4"/>
<feGaussianBlur stdDeviation="2"/>
<feComposite in2="hardAlpha" operator="out"/>
<feColorMatrix type="matrix" values="0 0 0 0 0.203922 0 0 0 0 0.878431 0 0 0 0 0.807843 0 0 0 1 0"/>
<feBlend mode="normal" in2="BackgroundImageFix" result="effect1_dropShadow_6_1515"/>
<feBlend mode="normal" in="SourceGraphic" in2="effect1_dropShadow_6_1515" result="shape"/>
</filter>
<filter id="filter6_d_6_1515" x="304.126" y="8.54163" width="27.599" height="33.5209" filterUnits="userSpaceOnUse" color-interpolation-filters="sRGB">
<feFlood flood-opacity="0" result="BackgroundImageFix"/>
<feColorMatrix in="SourceAlpha" type="matrix" values="0 0 0 0 0 0 0 0 0 0 0 0 0 0 0 0 0 0 127 0" result="hardAlpha"/>
<feOffset dy="4"/>
<feGaussianBlur stdDeviation="2"/>
<feComposite in2="hardAlpha" operator="out"/>
<feColorMatrix type="matrix" values="0 0 0 0 0.203922 0 0 0 0 0.878431 0 0 0 0 0.807843 0 0 0 1 0"/>
<feBlend mode="normal" in2="BackgroundImageFix" result="effect1_dropShadow_6_1515"/>
<feBlend mode="normal" in="SourceGraphic" in2="effect1_dropShadow_6_1515" result="shape"/>
</filter>
<filter id="filter7_d_6_1515" x="0" y="64.2084" width="42.8073" height="43.6459" filterUnits="userSpaceOnUse" color-interpolation-filters="sRGB">
<feFlood flood-opacity="0" result="BackgroundImageFix"/>
<feColorMatrix in="SourceAlpha" type="matrix" values="0 0 0 0 0 0 0 0 0 0 0 0 0 0 0 0 0 0 127 0" result="hardAlpha"/>
<feOffset dy="4"/>
<feGaussianBlur stdDeviation="2"/>
<feComposite in2="hardAlpha" operator="out"/>
<feColorMatrix type="matrix" values="0 0 0 0 0.203922 0 0 0 0 0.878431 0 0 0 0 0.807843 0 0 0 1 0"/>
<feBlend mode="normal" in2="BackgroundImageFix" result="effect1_dropShadow_6_1515"/>
<feBlend mode="normal" in="SourceGraphic" in2="effect1_dropShadow_6_1515" result="shape"/>
</filter>
<filter id="filter8_d_6_1515" x="37.7454" y="73.5416" width="27.599" height="33.5209" filterUnits="userSpaceOnUse" color-interpolation-filters="sRGB">
<feFlood flood-opacity="0" result="BackgroundImageFix"/>
<feColorMatrix in="SourceAlpha" type="matrix" values="0 0 0 0 0 0 0 0 0 0 0 0 0 0 0 0 0 0 127 0" result="hardAlpha"/>
<feOffset dy="4"/>
<feGaussianBlur stdDeviation="2"/>
<feComposite in2="hardAlpha" operator="out"/>
<feColorMatrix type="matrix" values="0 0 0 0 0.203922 0 0 0 0 0.878431 0 0 0 0 0.807843 0 0 0 1 0"/>
<feBlend mode="normal" in2="BackgroundImageFix" result="effect1_dropShadow_6_1515"/>
<feBlend mode="normal" in="SourceGraphic" in2="effect1_dropShadow_6_1515" result="shape"/>
</filter>
<filter id="filter9_d_6_1515" x="57.2028" y="74.3334" width="38.2344" height="42.8073" filterUnits="userSpaceOnUse" color-interpolation-filters="sRGB">
<feFlood flood-opacity="0" result="BackgroundImageFix"/>
<feColorMatrix in="SourceAlpha" type="matrix" values="0 0 0 0 0 0 0 0 0 0 0 0 0 0 0 0 0 0 127 0" result="hardAlpha"/>
<feOffset dy="4"/>
<feGaussianBlur stdDeviation="2"/>
<feComposite in2="hardAlpha" operator="out"/>
<feColorMatrix type="matrix" values="0 0 0 0 0.203922 0 0 0 0 0.878431 0 0 0 0 0.807843 0 0 0 1 0"/>
<feBlend mode="normal" in2="BackgroundImageFix" result="effect1_dropShadow_6_1515"/>
<feBlend mode="normal" in="SourceGraphic" in2="effect1_dropShadow_6_1515" result="shape"/>
</filter>
<filter id="filter10_d_6_1515" x="88.6938" y="73.5416" width="37.2084" height="42.8541" filterUnits="userSpaceOnUse" color-interpolation-filters="sRGB">
<feFlood flood-opacity="0" result="BackgroundImageFix"/>
<feColorMatrix in="SourceAlpha" type="matrix" values="0 0 0 0 0 0 0 0 0 0 0 0 0 0 0 0 0 0 127 0" result="hardAlpha"/>
<feOffset dy="4"/>
<feGaussianBlur stdDeviation="2"/>
<feComposite in2="hardAlpha" operator="out"/>
<feColorMatrix type="matrix" values="0 0 0 0 0.203922 0 0 0 0 0.878431 0 0 0 0 0.807843 0 0 0 1 0"/>
<feBlend mode="normal" in2="BackgroundImageFix" result="effect1_dropShadow_6_1515"/>
<feBlend mode="normal" in="SourceGraphic" in2="effect1_dropShadow_6_1515" result="shape"/>
</filter>
<filter id="filter11_d_6_1515" x="119.392" y="67.0052" width="32.6406" height="40.849" filterUnits="userSpaceOnUse" color-interpolation-filters="sRGB">
<feFlood flood-opacity="0" result="BackgroundImageFix"/>
<feColorMatrix in="SourceAlpha" type="matrix" values="0 0 0 0 0 0 0 0 0 0 0 0 0 0 0 0 0 0 127 0" result="hardAlpha"/>
<feOffset dy="4"/>
<feGaussianBlur stdDeviation="2"/>
<feComposite in2="hardAlpha" operator="out"/>
<feColorMatrix type="matrix" values="0 0 0 0 0.203922 0 0 0 0 0.878431 0 0 0 0 0.807843 0 0 0 1 0"/>
<feBlend mode="normal" in2="BackgroundImageFix" result="effect1_dropShadow_6_1515"/>
<feBlend mode="normal" in="SourceGraphic" in2="effect1_dropShadow_6_1515" result="shape"/>
</filter>
<filter id="filter12_d_6_1515" x="146.36" y="73.5416" width="37.2552" height="34.3125" filterUnits="userSpaceOnUse" color-interpolation-filters="sRGB">
<feFlood flood-opacity="0" result="BackgroundImageFix"/>
<feColorMatrix in="SourceAlpha" type="matrix" values="0 0 0 0 0 0 0 0 0 0 0 0 0 0 0 0 0 0 127 0" result="hardAlpha"/>
<feOffset dy="4"/>
<feGaussianBlur stdDeviation="2"/>
<feComposite in2="hardAlpha" operator="out"/>
<feColorMatrix type="matrix" values="0 0 0 0 0.203922 0 0 0 0 0.878431 0 0 0 0 0.807843 0 0 0 1 0"/>
<feBlend mode="normal" in2="BackgroundImageFix" result="effect1_dropShadow_6_1515"/>
<feBlend mode="normal" in="SourceGraphic" in2="effect1_dropShadow_6_1515" result="shape"/>
</filter>
<filter id="filter13_d_6_1515" x="177.387" y="73.5416" width="36.9323" height="34.3125" filterUnits="userSpaceOnUse" color-interpolation-filters="sRGB">
<feFlood flood-opacity="0" result="BackgroundImageFix"/>
<feColorMatrix in="SourceAlpha" type="matrix" values="0 0 0 0 0 0 0 0 0 0 0 0 0 0 0 0 0 0 127 0" result="hardAlpha"/>
<feOffset dy="4"/>
<feGaussianBlur stdDeviation="2"/>
<feComposite in2="hardAlpha" operator="out"/>
<feColorMatrix type="matrix" values="0 0 0 0 0.203922 0 0 0 0 0.878431 0 0 0 0 0.807843 0 0 0 1 0"/>
<feBlend mode="normal" in2="BackgroundImageFix" result="effect1_dropShadow_6_1515"/>
<feBlend mode="normal" in="SourceGraphic" in2="effect1_dropShadow_6_1515" result="shape"/>
</filter>
<filter id="filter14_d_6_1515" x="208.79" y="74.3334" width="35.7604" height="33.5209" filterUnits="userSpaceOnUse" color-interpolation-filters="sRGB">
<feFlood flood-opacity="0" result="BackgroundImageFix"/>
<feColorMatrix in="SourceAlpha" type="matrix" values="0 0 0 0 0 0 0 0 0 0 0 0 0 0 0 0 0 0 127 0" result="hardAlpha"/>
<feOffset dy="4"/>
<feGaussianBlur stdDeviation="2"/>
<feComposite in2="hardAlpha" operator="out"/>
<feColorMatrix type="matrix" values="0 0 0 0 0.203922 0 0 0 0 0.878431 0 0 0 0 0.807843 0 0 0 1 0"/>
<feBlend mode="normal" in2="BackgroundImageFix" result="effect1_dropShadow_6_1515"/>
<feBlend mode="normal" in="SourceGraphic" in2="effect1_dropShadow_6_1515" result="shape"/>
</filter>
<filter id="filter15_d_6_1515" x="240.793" y="73.5416" width="27.599" height="33.5209" filterUnits="userSpaceOnUse" color-interpolation-filters="sRGB">
<feFlood flood-opacity="0" result="BackgroundImageFix"/>
<feColorMatrix in="SourceAlpha" type="matrix" values="0 0 0 0 0 0 0 0 0 0 0 0 0 0 0 0 0 0 127 0" result="hardAlpha"/>
<feOffset dy="4"/>
<feGaussianBlur stdDeviation="2"/>
<feComposite in2="hardAlpha" operator="out"/>
<feColorMatrix type="matrix" values="0 0 0 0 0.203922 0 0 0 0 0.878431 0 0 0 0 0.807843 0 0 0 1 0"/>
<feBlend mode="normal" in2="BackgroundImageFix" result="effect1_dropShadow_6_1515"/>
<feBlend mode="normal" in="SourceGraphic" in2="effect1_dropShadow_6_1515" result="shape"/>
</filter>
<filter id="filter16_d_6_1515" x="263.188" y="73.5416" width="27.599" height="33.5209" filterUnits="userSpaceOnUse" color-interpolation-filters="sRGB">
<feFlood flood-opacity="0" result="BackgroundImageFix"/>
<feColorMatrix in="SourceAlpha" type="matrix" values="0 0 0 0 0 0 0 0 0 0 0 0 0 0 0 0 0 0 127 0" result="hardAlpha"/>
<feOffset dy="4"/>
<feGaussianBlur stdDeviation="2"/>
<feComposite in2="hardAlpha" operator="out"/>
<feColorMatrix type="matrix" values="0 0 0 0 0.203922 0 0 0 0 0.878431 0 0 0 0 0.807843 0 0 0 1 0"/>
<feBlend mode="normal" in2="BackgroundImageFix" result="effect1_dropShadow_6_1515"/>
<feBlend mode="normal" in="SourceGraphic" in2="effect1_dropShadow_6_1515" result="shape"/>
</filter>
<filter id="filter17_d_6_1515" x="284.369" y="73.5416" width="36.9791" height="34.3125" filterUnits="userSpaceOnUse" color-interpolation-filters="sRGB">
<feFlood flood-opacity="0" result="BackgroundImageFix"/>
<feColorMatrix in="SourceAlpha" type="matrix" values="0 0 0 0 0 0 0 0 0 0 0 0 0 0 0 0 0 0 127 0" result="hardAlpha"/>
<feOffset dy="4"/>
<feGaussianBlur stdDeviation="2"/>
<feComposite in2="hardAlpha" operator="out"/>
<feColorMatrix type="matrix" values="0 0 0 0 0.203922 0 0 0 0 0.878431 0 0 0 0 0.807843 0 0 0 1 0"/>
<feBlend mode="normal" in2="BackgroundImageFix" result="effect1_dropShadow_6_1515"/>
<feBlend mode="normal" in="SourceGraphic" in2="effect1_dropShadow_6_1515" result="shape"/>
</filter>
<filter id="filter18_d_6_1515" x="316.329" y="73.5416" width="35.8541" height="33.5209" filterUnits="userSpaceOnUse" color-interpolation-filters="sRGB">
<feFlood flood-opacity="0" result="BackgroundImageFix"/>
<feColorMatrix in="SourceAlpha" type="matrix" values="0 0 0 0 0 0 0 0 0 0 0 0 0 0 0 0 0 0 127 0" result="hardAlpha"/>
<feOffset dy="4"/>
<feGaussianBlur stdDeviation="2"/>
<feComposite in2="hardAlpha" operator="out"/>
<feColorMatrix type="matrix" values="0 0 0 0 0.203922 0 0 0 0 0.878431 0 0 0 0 0.807843 0 0 0 1 0"/>
<feBlend mode="normal" in2="BackgroundImageFix" result="effect1_dropShadow_6_1515"/>
<feBlend mode="normal" in="SourceGraphic" in2="effect1_dropShadow_6_1515" result="shape"/>
</filter>
<filter id="filter19_d_6_1515" x="346.702" y="73.5416" width="36.9323" height="34.3125" filterUnits="userSpaceOnUse" color-interpolation-filters="sRGB">
<feFlood flood-opacity="0" result="BackgroundImageFix"/>
<feColorMatrix in="SourceAlpha" type="matrix" values="0 0 0 0 0 0 0 0 0 0 0 0 0 0 0 0 0 0 127 0" result="hardAlpha"/>
<feOffset dy="4"/>
<feGaussianBlur stdDeviation="2"/>
<feComposite in2="hardAlpha" operator="out"/>
<feColorMatrix type="matrix" values="0 0 0 0 0.203922 0 0 0 0 0.878431 0 0 0 0 0.807843 0 0 0 1 0"/>
<feBlend mode="normal" in2="BackgroundImageFix" result="effect1_dropShadow_6_1515"/>
<feBlend mode="normal" in="SourceGraphic" in2="effect1_dropShadow_6_1515" result="shape"/>
</filter>
<filter id="filter20_d_6_1515" x="378.194" y="61.875" width="19.8542" height="45.1875" filterUnits="userSpaceOnUse" color-interpolation-filters="sRGB">
<feFlood flood-opacity="0" result="BackgroundImageFix"/>
<feColorMatrix in="SourceAlpha" type="matrix" values="0 0 0 0 0 0 0 0 0 0 0 0 0 0 0 0 0 0 127 0" result="hardAlpha"/>
<feOffset dy="4"/>
<feGaussianBlur stdDeviation="2"/>
<feComposite in2="hardAlpha" operator="out"/>
<feColorMatrix type="matrix" values="0 0 0 0 0.203922 0 0 0 0 0.878431 0 0 0 0 0.807843 0 0 0 1 0"/>
<feBlend mode="normal" in2="BackgroundImageFix" result="effect1_dropShadow_6_1515"/>
<feBlend mode="normal" in="SourceGraphic" in2="effect1_dropShadow_6_1515" result="shape"/>
</filter>
<filter id="filter21_d_6_1515" x="392.705" y="73.5416" width="36.9792" height="34.3125" filterUnits="userSpaceOnUse" color-interpolation-filters="sRGB">
<feFlood flood-opacity="0" result="BackgroundImageFix"/>
<feColorMatrix in="SourceAlpha" type="matrix" values="0 0 0 0 0 0 0 0 0 0 0 0 0 0 0 0 0 0 127 0" result="hardAlpha"/>
<feOffset dy="4"/>
<feGaussianBlur stdDeviation="2"/>
<feComposite in2="hardAlpha" operator="out"/>
<feColorMatrix type="matrix" values="0 0 0 0 0.203922 0 0 0 0 0.878431 0 0 0 0 0.807843 0 0 0 1 0"/>
<feBlend mode="normal" in2="BackgroundImageFix" result="effect1_dropShadow_6_1515"/>
<feBlend mode="normal" in="SourceGraphic" in2="effect1_dropShadow_6_1515" result="shape"/>
</filter>
<filter id="filter22_d_6_1515" x="423.035" y="73.5416" width="36.552" height="34.3125" filterUnits="userSpaceOnUse" color-interpolation-filters="sRGB">
<feFlood flood-opacity="0" result="BackgroundImageFix"/>
<feColorMatrix in="SourceAlpha" type="matrix" values="0 0 0 0 0 0 0 0 0 0 0 0 0 0 0 0 0 0 127 0" result="hardAlpha"/>
<feOffset dy="4"/>
<feGaussianBlur stdDeviation="2"/>
<feComposite in2="hardAlpha" operator="out"/>
<feColorMatrix type="matrix" values="0 0 0 0 0.203922 0 0 0 0 0.878431 0 0 0 0 0.807843 0 0 0 1 0"/>
<feBlend mode="normal" in2="BackgroundImageFix" result="effect1_dropShadow_6_1515"/>
<feBlend mode="normal" in="SourceGraphic" in2="effect1_dropShadow_6_1515" result="shape"/>
</filter>
</defs>
</svg>
